<svg xmlns="http://www.w3.org/2000/svg" xmlns:xlink="http://www.w3.org/1999/xlink" width="500" zoomAndPan="magnify" viewBox="0 0 375 374.999991" height="500" preserveAspectRatio="xMidYMid meet" version="1.0"><defs><g/><clipPath id="f2698719c0"><path d="M 60.375 135.628906 L 314.761719 135.628906 L 314.761719 206.816406 L 60.375 206.816406 Z M 60.375 135.628906 " clip-rule="nonzero"/></clipPath></defs><g clip-path="url(#f2698719c0)"><path fill="#040606" d="M 298.683594 164.796875 C 293.9375 164.863281 289.488281 167.195312 286.757812 171.085938 C 280.164062 180.410156 280.886719 193.058594 288.472656 201.589844 C 258.054688 200.117188 227.542969 200.863281 197.210938 203.804688 C 201.863281 199.664062 207.058594 196.179688 212.636719 193.417969 C 232.261719 192.875 251.910156 193.375 271.511719 194.914062 C 251.730469 191.675781 231.71875 190.457031 211.710938 191.269531 C 203.714844 195.253906 196.445312 200.503906 190.164062 206.816406 C 224.539062 202.832031 259.160156 201.589844 293.734375 203.082031 C 284.003906 195.976562 281.765625 182.355469 288.722656 172.511719 C 292.675781 166.878906 300.441406 165.542969 306.042969 169.503906 C 307.761719 170.722656 309.136719 172.332031 310.042969 174.230469 C 313.769531 184.1875 312.007812 195.367188 305.410156 203.691406 C 314.535156 196.363281 317.382812 183.667969 312.230469 173.144531 C 309.726562 167.988281 304.441406 164.726562 298.703125 164.796875 Z M 174.539062 162.738281 C 168.28125 162.738281 162.34375 165.542969 158.367188 170.386719 C 150.371094 179.84375 149.425781 193.417969 156.0625 203.898438 C 149.425781 203.988281 142.875 202.3125 137.09375 199.078125 L 114.824219 184.414062 C 109.632812 180.65625 103.441406 178.507812 97.027344 178.28125 L 61.347656 177.601562 C 60.421875 179.867188 60.691406 182.421875 62.070312 184.414062 C 65.816406 189.414062 70.46875 193.644531 75.777344 196.90625 C 76.816406 197.582031 77.652344 198.535156 78.195312 199.664062 L 60.375 200.433594 L 81.105469 200.839844 C 80.65625 198.351562 79.1875 196.179688 77.066406 194.84375 C 72.027344 191.746094 67.601562 187.71875 64.054688 182.988281 C 63.46875 182.152344 63.175781 181.109375 63.242188 180.09375 L 96.960938 180.726562 C 102.878906 180.929688 108.613281 182.921875 113.425781 186.429688 L 135.804688 201.160156 C 142.988281 205.207031 151.253906 206.953125 159.453125 206.136719 C 150.597656 194.257812 153.039062 177.421875 164.917969 168.550781 C 165.753906 167.917969 166.609375 167.351562 167.515625 166.832031 C 177.746094 163.144531 188.992188 168.484375 192.671875 178.734375 C 192.832031 179.230469 193.011719 179.753906 193.148438 180.273438 C 194.390625 184.59375 194.726562 189.164062 194.117188 193.644531 C 198.070312 183.578125 194.570312 172.128906 185.695312 165.972656 L 185.671875 165.972656 C 182.351562 163.867188 178.488281 162.757812 174.539062 162.738281 Z M 77.019531 157.847656 C 71.464844 157.871094 65.929688 157.941406 60.398438 158.097656 C 85.625 159.886719 110.894531 161.355469 136.167969 162.464844 C 136.03125 163.753906 135.128906 164.820312 133.910156 165.203125 C 126.929688 167.398438 119.566406 168.007812 112.320312 167.058594 C 95.019531 165.90625 77.652344 166.132812 60.375 167.761719 C 77.628906 167.464844 94.882812 168.03125 112.070312 169.480469 C 119.636719 170.476562 127.335938 169.820312 134.632812 167.535156 C 136.957031 166.808594 138.5625 164.660156 138.605469 162.214844 L 138.605469 160.226562 C 118.101562 158.597656 97.546875 157.804688 76.972656 157.847656 Z M 191.25 142.507812 C 166.339844 142.417969 141.566406 145.925781 117.648438 152.9375 C 150.078125 151.761719 182.53125 154.363281 214.351562 160.65625 C 236.621094 166.289062 259.925781 166.492188 282.308594 161.289062 C 291.320312 159.5 300.691406 161.628906 308.078125 167.125 C 299.40625 159.140625 287.1875 156.308594 275.917969 159.703125 C 275.644531 159.773438 275.375 159.839844 275.105469 159.886719 L 275.082031 159.886719 C 255.546875 163.6875 235.445312 163.347656 216.046875 158.890625 C 189.804688 153.4375 163.085938 150.632812 136.300781 150.496094 C 155.339844 145.675781 174.855469 143.003906 194.480469 142.554688 C 193.394531 142.53125 192.3125 142.507812 191.226562 142.507812 Z M 188.335938 135.652344 C 180.230469 135.695312 172.167969 136.421875 164.171875 137.777344 C 129.707031 144.136719 95.109375 149.769531 60.398438 154.660156 C 76.230469 154.839844 92.0625 153.640625 107.6875 151.082031 C 126.773438 146.152344 146.125 142.417969 165.660156 139.882812 C 199.199219 135.0625 233.390625 140.5625 263.722656 155.632812 C 240.800781 142.394531 214.78125 135.492188 188.335938 135.652344 " fill-opacity="1" fill-rule="nonzero"/></g><g fill="#272727" fill-opacity="1"><g transform="translate(210.078332, 254.746814)"><g><path d="M 3.671875 0 L 3.671875 -25.203125 L 12.390625 -25.203125 C 14.972656 -25.203125 17.226562 -24.664062 19.15625 -23.59375 C 21.09375 -22.53125 22.601562 -21.054688 23.6875 -19.171875 C 24.769531 -17.285156 25.3125 -15.09375 25.3125 -12.59375 C 25.3125 -10.125 24.769531 -7.941406 23.6875 -6.046875 C 22.601562 -4.148438 21.09375 -2.664062 19.15625 -1.59375 C 17.226562 -0.53125 14.972656 0 12.390625 0 Z M 6.84375 -3.03125 L 12.390625 -3.03125 C 14.304688 -3.03125 15.988281 -3.429688 17.4375 -4.234375 C 18.894531 -5.035156 20.03125 -6.15625 20.84375 -7.59375 C 21.65625 -9.03125 22.0625 -10.695312 22.0625 -12.59375 C 22.0625 -14.519531 21.644531 -16.195312 20.8125 -17.625 C 19.988281 -19.050781 18.84375 -20.164062 17.375 -20.96875 C 15.914062 -21.769531 14.203125 -22.171875 12.234375 -22.171875 L 6.84375 -22.171875 Z M 6.84375 -3.03125 "/></g></g></g><g fill="#272727" fill-opacity="1"><g transform="translate(235.422387, 254.746814)"><g><path d="M 11.453125 0.46875 C 9.578125 0.46875 7.914062 0.0546875 6.46875 -0.765625 C 5.03125 -1.597656 3.90625 -2.757812 3.09375 -4.25 C 2.28125 -5.738281 1.875 -7.441406 1.875 -9.359375 C 1.875 -11.273438 2.28125 -12.972656 3.09375 -14.453125 C 3.90625 -15.929688 5.035156 -17.082031 6.484375 -17.90625 C 7.941406 -18.738281 9.609375 -19.15625 11.484375 -19.15625 C 13.472656 -19.15625 15.195312 -18.6875 16.65625 -17.75 C 18.125 -16.8125 19.25 -15.519531 20.03125 -13.875 C 20.8125 -12.226562 21.164062 -10.316406 21.09375 -8.140625 L 4.9375 -8.140625 C 5.175781 -6.390625 5.878906 -4.988281 7.046875 -3.9375 C 8.222656 -2.894531 9.703125 -2.375 11.484375 -2.375 C 12.703125 -2.375 13.816406 -2.632812 14.828125 -3.15625 C 15.835938 -3.6875 16.628906 -4.445312 17.203125 -5.4375 L 20.625 -5.4375 C 19.882812 -3.613281 18.695312 -2.171875 17.0625 -1.109375 C 15.425781 -0.0546875 13.554688 0.46875 11.453125 0.46875 Z M 4.96875 -10.796875 L 18.078125 -10.796875 C 17.765625 -12.503906 17.015625 -13.847656 15.828125 -14.828125 C 14.640625 -15.816406 13.191406 -16.3125 11.484375 -16.3125 C 9.753906 -16.3125 8.300781 -15.804688 7.125 -14.796875 C 5.945312 -13.785156 5.226562 -12.453125 4.96875 -10.796875 Z M 4.96875 -10.796875 "/></g></g></g><g fill="#272727" fill-opacity="1"><g transform="translate(256.266431, 254.746814)"><g><path d="M 8.75 0 L 0.578125 -18.6875 L 3.859375 -18.6875 L 6.40625 -12.78125 L 10.21875 -4.03125 L 14 -12.78125 L 16.59375 -18.6875 L 19.875 -18.6875 L 11.65625 0 Z M 8.75 0 "/></g></g></g><g fill="#272727" fill-opacity="1"><g transform="translate(274.66247, 254.746814)"><g><path d="M 10.109375 0.46875 C 7.660156 0.46875 5.695312 -0.113281 4.21875 -1.28125 C 2.75 -2.445312 1.988281 -3.976562 1.9375 -5.875 L 4.9375 -5.875 C 4.976562 -4.738281 5.453125 -3.847656 6.359375 -3.203125 C 7.273438 -2.554688 8.539062 -2.234375 10.15625 -2.234375 C 11.570312 -2.234375 12.6875 -2.476562 13.5 -2.96875 C 14.3125 -3.457031 14.71875 -4.125 14.71875 -4.96875 C 14.71875 -5.8125 14.289062 -6.492188 13.4375 -7.015625 C 12.59375 -7.546875 11.257812 -7.96875 9.4375 -8.28125 C 7.03125 -8.6875 5.242188 -9.34375 4.078125 -10.25 C 2.921875 -11.164062 2.34375 -12.359375 2.34375 -13.828125 C 2.34375 -15.503906 2.984375 -16.8125 4.265625 -17.75 C 5.546875 -18.6875 7.316406 -19.15625 9.578125 -19.15625 C 11.878906 -19.15625 13.71875 -18.644531 15.09375 -17.625 C 16.476562 -16.601562 17.234375 -15.164062 17.359375 -13.3125 L 14.359375 -13.3125 C 14.265625 -14.351562 13.800781 -15.140625 12.96875 -15.671875 C 12.144531 -16.210938 11.023438 -16.484375 9.609375 -16.484375 C 8.265625 -16.484375 7.210938 -16.25 6.453125 -15.78125 C 5.703125 -15.3125 5.328125 -14.660156 5.328125 -13.828125 C 5.328125 -13.035156 5.707031 -12.414062 6.46875 -11.96875 C 7.238281 -11.519531 8.597656 -11.109375 10.546875 -10.734375 C 15.328125 -9.796875 17.71875 -7.847656 17.71875 -4.890625 C 17.71875 -3.285156 17.023438 -1.988281 15.640625 -1 C 14.265625 -0.0195312 12.421875 0.46875 10.109375 0.46875 Z M 10.109375 0.46875 "/></g></g></g><g fill="#31a9c4" fill-opacity="0.4"><g transform="translate(64.422974, 254.746814)"><g><path d="M 3.03125 0 L 3.03125 -25.203125 L 13 -25.203125 C 15.65625 -25.203125 17.976562 -24.671875 19.96875 -23.609375 C 21.96875 -22.554688 23.519531 -21.082031 24.625 -19.1875 C 25.726562 -17.289062 26.28125 -15.09375 26.28125 -12.59375 C 26.28125 -10.070312 25.726562 -7.867188 24.625 -5.984375 C 23.519531 -4.109375 21.96875 -2.640625 19.96875 -1.578125 C 17.976562 -0.523438 15.65625 0 13 0 Z M 8.75 -5.25 L 12.890625 -5.25 C 14.378906 -5.25 15.6875 -5.554688 16.8125 -6.171875 C 17.9375 -6.785156 18.816406 -7.644531 19.453125 -8.75 C 20.085938 -9.851562 20.40625 -11.132812 20.40625 -12.59375 C 20.40625 -14.082031 20.085938 -15.375 19.453125 -16.46875 C 18.816406 -17.5625 17.925781 -18.410156 16.78125 -19.015625 C 15.644531 -19.628906 14.320312 -19.9375 12.8125 -19.9375 L 8.75 -19.9375 Z M 8.75 -5.25 "/></g></g></g><g fill="#31a9c4" fill-opacity="0.4"><g transform="translate(90.16303, 254.746814)"><g><path d="M 2.734375 0 L 2.734375 -18.90625 L 6.796875 -18.90625 L 7.53125 -16.375 C 8.144531 -17.269531 8.910156 -17.914062 9.828125 -18.3125 C 10.742188 -18.707031 11.894531 -18.90625 13.28125 -18.90625 L 15.34375 -18.90625 L 15.34375 -13.9375 L 13.25 -13.9375 C 11.6875 -13.9375 10.453125 -13.515625 9.546875 -12.671875 C 8.648438 -11.828125 8.203125 -10.390625 8.203125 -8.359375 L 8.203125 0 Z M 2.734375 0 "/></g></g></g><g fill="#31a9c4" fill-opacity="0.4"><g transform="translate(104.671065, 254.746814)"><g><path d="M 2.734375 0 L 2.734375 -18.90625 L 8.203125 -18.90625 L 8.203125 0 Z M 1.9375 -25.015625 C 1.9375 -26.023438 2.265625 -26.847656 2.921875 -27.484375 C 3.585938 -28.117188 4.4375 -28.4375 5.46875 -28.4375 C 6.53125 -28.4375 7.382812 -28.117188 8.03125 -27.484375 C 8.675781 -26.847656 9 -26.023438 9 -25.015625 C 9 -24.015625 8.675781 -23.191406 8.03125 -22.546875 C 7.382812 -21.910156 6.53125 -21.59375 5.46875 -21.59375 C 4.4375 -21.59375 3.585938 -21.910156 2.921875 -22.546875 C 2.265625 -23.191406 1.9375 -24.015625 1.9375 -25.015625 Z M 1.9375 -25.015625 "/></g></g></g><g fill="#31a9c4" fill-opacity="0.4"><g transform="translate(113.563083, 254.746814)"><g><path d="M 8.171875 0 L 0.328125 -18.90625 L 6.296875 -18.90625 L 8.421875 -12.953125 L 10.9375 -6.546875 L 13.421875 -12.953125 L 15.59375 -18.90625 L 21.53125 -18.90625 L 13.640625 0 Z M 8.171875 0 "/></g></g></g><g fill="#31a9c4" fill-opacity="0.4"><g transform="translate(133.363129, 254.746814)"><g><path d="M 11.65625 0.5 C 9.644531 0.5 7.863281 0.0820312 6.3125 -0.75 C 4.769531 -1.59375 3.566406 -2.765625 2.703125 -4.265625 C 1.835938 -5.765625 1.40625 -7.5 1.40625 -9.46875 C 1.40625 -11.4375 1.84375 -13.164062 2.71875 -14.65625 C 3.59375 -16.144531 4.800781 -17.304688 6.34375 -18.140625 C 7.894531 -18.984375 9.691406 -19.40625 11.734375 -19.40625 C 13.890625 -19.40625 15.753906 -18.925781 17.328125 -17.96875 C 18.898438 -17.007812 20.097656 -15.664062 20.921875 -13.9375 C 21.753906 -12.207031 22.113281 -10.191406 22 -7.890625 L 6.84375 -7.890625 C 7.101562 -6.585938 7.675781 -5.59375 8.5625 -4.90625 C 9.457031 -4.226562 10.523438 -3.890625 11.765625 -3.890625 C 12.679688 -3.890625 13.515625 -4.0625 14.265625 -4.40625 C 15.023438 -4.757812 15.632812 -5.25 16.09375 -5.875 L 21.640625 -5.875 C 20.816406 -3.875 19.53125 -2.3125 17.78125 -1.1875 C 16.03125 -0.0625 13.988281 0.5 11.65625 0.5 Z M 6.875 -11.34375 L 16.703125 -11.34375 C 16.390625 -12.488281 15.804688 -13.390625 14.953125 -14.046875 C 14.109375 -14.710938 13.046875 -15.046875 11.765625 -15.046875 C 10.566406 -15.046875 9.53125 -14.710938 8.65625 -14.046875 C 7.78125 -13.390625 7.1875 -12.488281 6.875 -11.34375 Z M 6.875 -11.34375 "/></g></g></g><g fill="#31a9c4" fill-opacity="0.4"><g transform="translate(154.67518, 254.746814)"><g><path d="M 3.03125 0 L 3.03125 -25.203125 L 14.296875 -25.203125 C 16.859375 -25.203125 18.894531 -24.585938 20.40625 -23.359375 C 21.925781 -22.140625 22.6875 -20.5 22.6875 -18.4375 C 22.6875 -17.257812 22.421875 -16.1875 21.890625 -15.21875 C 21.359375 -14.257812 20.613281 -13.503906 19.65625 -12.953125 C 20.851562 -12.429688 21.78125 -11.65625 22.4375 -10.625 C 23.101562 -9.59375 23.4375 -8.40625 23.4375 -7.0625 C 23.4375 -5.644531 23.078125 -4.40625 22.359375 -3.34375 C 21.640625 -2.289062 20.632812 -1.46875 19.34375 -0.875 C 18.0625 -0.289062 16.570312 0 14.875 0 Z M 8.671875 -4.53125 L 14 -4.53125 C 15.132812 -4.53125 16.007812 -4.796875 16.625 -5.328125 C 17.25 -5.859375 17.5625 -6.601562 17.5625 -7.5625 C 17.5625 -8.519531 17.25 -9.257812 16.625 -9.78125 C 16.007812 -10.3125 15.132812 -10.578125 14 -10.578125 L 8.671875 -10.578125 Z M 8.671875 -14.9375 L 13.421875 -14.9375 C 14.523438 -14.9375 15.367188 -15.1875 15.953125 -15.6875 C 16.546875 -16.195312 16.84375 -16.90625 16.84375 -17.8125 C 16.84375 -18.726562 16.546875 -19.429688 15.953125 -19.921875 C 15.367188 -20.410156 14.523438 -20.65625 13.421875 -20.65625 L 8.671875 -20.65625 Z M 8.671875 -14.9375 "/></g></g></g><g fill="#31a9c4" fill-opacity="0.4"><g transform="translate(177.427228, 254.746814)"><g><path d="M 2.8125 7.203125 L 2.8125 2.484375 L 4.96875 2.484375 C 6.09375 2.484375 6.898438 2.304688 7.390625 1.953125 C 7.890625 1.609375 8.296875 0.96875 8.609375 0.03125 L 8.8125 -0.609375 L 0.328125 -18.90625 L 6.375 -18.90625 L 11.453125 -7.203125 L 13.171875 -12.03125 L 15.703125 -18.90625 L 21.5625 -18.90625 L 13.140625 2.234375 C 12.640625 3.523438 12.0625 4.53125 11.40625 5.25 C 10.757812 5.976562 9.957031 6.484375 9 6.765625 C 8.039062 7.054688 6.828125 7.203125 5.359375 7.203125 Z M 2.8125 7.203125 "/></g></g></g><g fill="#a80c0c" fill-opacity="1"><g transform="translate(64.422974, 254.746814)"><g><path d="M 3.03125 0 L 3.03125 -25.203125 L 13 -25.203125 C 15.65625 -25.203125 17.976562 -24.671875 19.96875 -23.609375 C 21.96875 -22.554688 23.519531 -21.082031 24.625 -19.1875 C 25.726562 -17.289062 26.28125 -15.09375 26.28125 -12.59375 C 26.28125 -10.070312 25.726562 -7.867188 24.625 -5.984375 C 23.519531 -4.109375 21.96875 -2.640625 19.96875 -1.578125 C 17.976562 -0.523438 15.65625 0 13 0 Z M 8.75 -5.25 L 12.890625 -5.25 C 14.378906 -5.25 15.6875 -5.554688 16.8125 -6.171875 C 17.9375 -6.785156 18.816406 -7.644531 19.453125 -8.75 C 20.085938 -9.851562 20.40625 -11.132812 20.40625 -12.59375 C 20.40625 -14.082031 20.085938 -15.375 19.453125 -16.46875 C 18.816406 -17.5625 17.925781 -18.410156 16.78125 -19.015625 C 15.644531 -19.628906 14.320312 -19.9375 12.8125 -19.9375 L 8.75 -19.9375 Z M 8.75 -5.25 "/></g></g></g><g fill="#a80c0c" fill-opacity="1"><g transform="translate(90.16303, 254.746814)"><g><path d="M 2.734375 0 L 2.734375 -18.90625 L 6.796875 -18.90625 L 7.53125 -16.375 C 8.144531 -17.269531 8.910156 -17.914062 9.828125 -18.3125 C 10.742188 -18.707031 11.894531 -18.90625 13.28125 -18.90625 L 15.34375 -18.90625 L 15.34375 -13.9375 L 13.25 -13.9375 C 11.6875 -13.9375 10.453125 -13.515625 9.546875 -12.671875 C 8.648438 -11.828125 8.203125 -10.390625 8.203125 -8.359375 L 8.203125 0 Z M 2.734375 0 "/></g></g></g><g fill="#a80c0c" fill-opacity="1"><g transform="translate(104.671065, 254.746814)"><g><path d="M 2.734375 0 L 2.734375 -18.90625 L 8.203125 -18.90625 L 8.203125 0 Z M 1.9375 -25.015625 C 1.9375 -26.023438 2.265625 -26.847656 2.921875 -27.484375 C 3.585938 -28.117188 4.4375 -28.4375 5.46875 -28.4375 C 6.53125 -28.4375 7.382812 -28.117188 8.03125 -27.484375 C 8.675781 -26.847656 9 -26.023438 9 -25.015625 C 9 -24.015625 8.675781 -23.191406 8.03125 -22.546875 C 7.382812 -21.910156 6.53125 -21.59375 5.46875 -21.59375 C 4.4375 -21.59375 3.585938 -21.910156 2.921875 -22.546875 C 2.265625 -23.191406 1.9375 -24.015625 1.9375 -25.015625 Z M 1.9375 -25.015625 "/></g></g></g><g fill="#a80c0c" fill-opacity="1"><g transform="translate(113.563083, 254.746814)"><g><path d="M 8.171875 0 L 0.328125 -18.90625 L 6.296875 -18.90625 L 8.421875 -12.953125 L 10.9375 -6.546875 L 13.421875 -12.953125 L 15.59375 -18.90625 L 21.53125 -18.90625 L 13.640625 0 Z M 8.171875 0 "/></g></g></g><g fill="#a80c0c" fill-opacity="1"><g transform="translate(133.363129, 254.746814)"><g><path d="M 11.65625 0.5 C 9.644531 0.5 7.863281 0.0820312 6.3125 -0.75 C 4.769531 -1.59375 3.566406 -2.765625 2.703125 -4.265625 C 1.835938 -5.765625 1.40625 -7.5 1.40625 -9.46875 C 1.40625 -11.4375 1.84375 -13.164062 2.71875 -14.65625 C 3.59375 -16.144531 4.800781 -17.304688 6.34375 -18.140625 C 7.894531 -18.984375 9.691406 -19.40625 11.734375 -19.40625 C 13.890625 -19.40625 15.753906 -18.925781 17.328125 -17.96875 C 18.898438 -17.007812 20.097656 -15.664062 20.921875 -13.9375 C 21.753906 -12.207031 22.113281 -10.191406 22 -7.890625 L 6.84375 -7.890625 C 7.101562 -6.585938 7.675781 -5.59375 8.5625 -4.90625 C 9.457031 -4.226562 10.523438 -3.890625 11.765625 -3.890625 C 12.679688 -3.890625 13.515625 -4.0625 14.265625 -4.40625 C 15.023438 -4.757812 15.632812 -5.25 16.09375 -5.875 L 21.640625 -5.875 C 20.816406 -3.875 19.53125 -2.3125 17.78125 -1.1875 C 16.03125 -0.0625 13.988281 0.5 11.65625 0.5 Z M 6.875 -11.34375 L 16.703125 -11.34375 C 16.390625 -12.488281 15.804688 -13.390625 14.953125 -14.046875 C 14.109375 -14.710938 13.046875 -15.046875 11.765625 -15.046875 C 10.566406 -15.046875 9.53125 -14.710938 8.65625 -14.046875 C 7.78125 -13.390625 7.1875 -12.488281 6.875 -11.34375 Z M 6.875 -11.34375 "/></g></g></g><g fill="#a80c0c" fill-opacity="1"><g transform="translate(154.67518, 254.746814)"><g><path d="M 3.03125 0 L 3.03125 -25.203125 L 14.296875 -25.203125 C 16.859375 -25.203125 18.894531 -24.585938 20.40625 -23.359375 C 21.925781 -22.140625 22.6875 -20.5 22.6875 -18.4375 C 22.6875 -17.257812 22.421875 -16.1875 21.890625 -15.21875 C 21.359375 -14.257812 20.613281 -13.503906 19.65625 -12.953125 C 20.851562 -12.429688 21.78125 -11.65625 22.4375 -10.625 C 23.101562 -9.59375 23.4375 -8.40625 23.4375 -7.0625 C 23.4375 -5.644531 23.078125 -4.40625 22.359375 -3.34375 C 21.640625 -2.289062 20.632812 -1.46875 19.34375 -0.875 C 18.0625 -0.289062 16.570312 0 14.875 0 Z M 8.671875 -4.53125 L 14 -4.53125 C 15.132812 -4.53125 16.007812 -4.796875 16.625 -5.328125 C 17.25 -5.859375 17.5625 -6.601562 17.5625 -7.5625 C 17.5625 -8.519531 17.25 -9.257812 16.625 -9.78125 C 16.007812 -10.3125 15.132812 -10.578125 14 -10.578125 L 8.671875 -10.578125 Z M 8.671875 -14.9375 L 13.421875 -14.9375 C 14.523438 -14.9375 15.367188 -15.1875 15.953125 -15.6875 C 16.546875 -16.195312 16.84375 -16.90625 16.84375 -17.8125 C 16.84375 -18.726562 16.546875 -19.429688 15.953125 -19.921875 C 15.367188 -20.410156 14.523438 -20.65625 13.421875 -20.65625 L 8.671875 -20.65625 Z M 8.671875 -14.9375 "/></g></g></g><g fill="#a80c0c" fill-opacity="1"><g transform="translate(177.427228, 254.746814)"><g><path d="M 2.8125 7.203125 L 2.8125 2.484375 L 4.96875 2.484375 C 6.09375 2.484375 6.898438 2.304688 7.390625 1.953125 C 7.890625 1.609375 8.296875 0.96875 8.609375 0.03125 L 8.8125 -0.609375 L 0.328125 -18.90625 L 6.375 -18.90625 L 11.453125 -7.203125 L 13.171875 -12.03125 L 15.703125 -18.90625 L 21.5625 -18.90625 L 13.140625 2.234375 C 12.640625 3.523438 12.0625 4.53125 11.40625 5.25 C 10.757812 5.976562 9.957031 6.484375 9 6.765625 C 8.039062 7.054688 6.828125 7.203125 5.359375 7.203125 Z M 2.8125 7.203125 "/></g></g></g></svg>